<?xml version="1.0" standalone="no"?>
<!DOCTYPE svg PUBLIC "-//W3C//DTD SVG 20010904//EN"
 "http://www.w3.org/TR/2001/REC-SVG-20010904/DTD/svg10.dtd">
<svg version="1.0" xmlns="http://www.w3.org/2000/svg"
 width="18.000000pt" height="20.000000pt" viewBox="0 0 18.000000 20.000000"
 preserveAspectRatio="xMidYMid meet">

<g transform="translate(0.000000,20.000000) scale(0.100000,-0.100000)"
fill="#000000" stroke="none">
<path d="M55 180 c-10 -11 -24 -20 -30 -20 -17 0 -30 -127 -14 -146 16 -19
142 -19 158 0 16 19 3 146 -14 146 -6 0 -20 9 -30 20 -10 11 -26 20 -35 20 -9
0 -25 -9 -35 -20z m50 -10 c3 -5 -3 -10 -15 -10 -12 0 -18 5 -15 10 3 6 10 10
15 10 5 0 12 -4 15 -10z m-48 -42 c2 6 17 12 33 12 16 0 31 -6 33 -12 4 -10 8
-9 16 2 9 12 11 10 11 -10 0 -14 3 -42 6 -63 l7 -37 -73 0 -73 0 7 37 c3 21 6
49 6 63 0 20 2 22 11 10 8 -11 12 -12 16 -2z"/>
</g>
</svg>
